<svg width="400" height="440" viewBox="0 0 400 440" xmlns="http://www.w3.org/2000/svg"><g stroke="#3A2E26" stroke-width="5" stroke-linejoin="round" stroke-linecap="round"><path d="M64 440 C64 348 120 322 200 322 C280 322 336 348 336 440 Z" fill="#C4BEB2"/><path d="M80 380 H320" stroke="#928C80" stroke-width="4" fill="none"/><path d="M74 405 H326" stroke="#928C80" stroke-width="4" fill="none"/><path d="M70 430 H330" stroke="#928C80" stroke-width="4" fill="none"/><path d="M96 350 C110 330 150 326 165 342 C150 350 120 356 96 366 Z" fill="#C4BEB2"/><path d="M304 350 C290 330 250 326 235 342 C250 350 280 356 304 366 Z" fill="#C4BEB2"/><path d="M235 338 C300 340 322 372 330 430 C300 410 270 396 245 392 Z" fill="#8A2B22"/><path d="M176 274 L176 326 Q200 340 224 326 L224 274 Z" fill="#E3A878"/><path d="M176 300 Q200 318 224 300 L224 326 Q200 340 176 326 Z" fill="#D99C6E" stroke="none" opacity="0.6"/><ellipse cx="200" cy="190" rx="80" ry="92" fill="#E8B68C"/><path d="M200 100 C250 104 280 150 280 190 C280 245 245 280 200 282 C235 270 258 230 258 188 C258 145 235 108 200 100 Z" fill="#D99C6E" stroke="none" opacity="0.5"/><path d="M129 179 C107 180 103 207 122 213 C125 208 124 196 127 188 C127 184 128 181 129 179 Z" fill="#E8B68C" stroke="none"/><path d="M271 179 C293 180 297 207 278 213 C275 208 276 196 273 188 C273 184 272 181 271 179 Z" fill="#E3A878" stroke="none"/><path d="M129 180 C108 182 105 206 122 212" fill="none" stroke="#3A2E26" stroke-width="4.5"/><path d="M271 180 C292 182 295 206 278 212" fill="none" stroke="#3A2E26" stroke-width="4.5"/><path d="M121 189 C115 193 115 202 120 206" fill="none" stroke="#3A2E26" stroke-width="2.8"/><path d="M279 189 C285 193 285 202 280 206" fill="none" stroke="#3A2E26" stroke-width="2.8"/><path d="M122 150 C122 92 160 70 200 70 C240 70 278 92 278 150 C278 138 270 132 258 132 L142 132 C130 132 122 138 122 150 Z" fill="#C4BEB2"/><rect x="134" y="126" width="132" height="16" rx="6" fill="#C4BEB2"/><path d="M122 150 C118 168 120 184 124 196 L132 196 C128 178 130 160 134 150 Z" fill="#C4BEB2"/><path d="M278 150 C282 168 280 184 276 196 L268 196 C272 178 270 160 266 150 Z" fill="#C4BEB2"/><path d="M188 70 C188 40 212 40 212 70 C212 56 200 52 200 56 C200 52 188 56 188 70 Z" fill="#9E3B2E"/><path d="M192 70 C192 30 208 30 208 70" fill="#9E3B2E"/><rect x="194" y="60" width="12" height="78" fill="#9E3B2E"/><path d="M134 126 C134 110 150 100 200 100 C250 100 266 110 266 126" fill="none" stroke="#928C80" stroke-width="3"/><path d="M150 162 Q170 153 188 160" fill="none" stroke="#3A2E26" stroke-width="6"/><path d="M212 160 Q230 153 250 162" fill="none" stroke="#3A2E26" stroke-width="6"/><ellipse cx="168" cy="180" rx="15" ry="12.5" fill="#fff"/><circle cx="171" cy="182" r="6.5" fill="#3A2E26" stroke="none"/><circle cx="173" cy="180" r="2" fill="#fff" stroke="none"/><ellipse cx="232" cy="180" rx="15" ry="12.5" fill="#fff"/><circle cx="229" cy="182" r="6.5" fill="#3A2E26" stroke="none"/><circle cx="231" cy="180" r="2" fill="#fff" stroke="none"/><path d="M198 184 C196 200 190 212 188 218 Q200 226 210 216" fill="none" stroke="#3A2E26" stroke-width="4.5"/><path d="M178 246 Q200 257 222 246" fill="none" stroke="#3A2E26" stroke-width="5"/></g></svg>