<svg width="400" height="440" viewBox="0 0 400 440" xmlns="http://www.w3.org/2000/svg"><g stroke="#3A2E26" stroke-width="5" stroke-linejoin="round" stroke-linecap="round"><path d="M70 440 C70 350 120 320 200 320 C280 320 330 350 330 440 Z" fill="#E7DCC4"/><path d="M118 440 C150 360 250 345 320 360 C338 400 338 440 338 440 Z" fill="#6E2440"/><path d="M150 430 C180 380 235 366 300 376" fill="none" stroke="#581C32" stroke-width="4"/><path d="M168 438 C200 398 250 388 312 398" fill="none" stroke="#581C32" stroke-width="4"/><path d="M118 440 C150 360 250 345 320 360" fill="none" stroke="#D9A93C" stroke-width="9"/><circle cx="300" cy="360" r="11" fill="#D9A93C"/><circle cx="300" cy="360" r="4" fill="#A87E22" stroke="none"/><path d="M176 274 L176 326 Q200 340 224 326 L224 274 Z" fill="#E3A878"/><path d="M176 300 Q200 318 224 300 L224 326 Q200 340 176 326 Z" fill="#D99C6E" stroke="none" opacity="0.6"/><ellipse cx="200" cy="190" rx="80" ry="92" fill="#E8B68C"/><path d="M200 100 C250 104 280 150 280 190 C280 245 245 280 200 282 C235 270 258 230 258 188 C258 145 235 108 200 100 Z" fill="#D99C6E" stroke="none" opacity="0.5"/><path d="M129 179 C107 180 103 207 122 213 C125 208 124 196 127 188 C127 184 128 181 129 179 Z" fill="#E8B68C" stroke="none"/><path d="M271 179 C293 180 297 207 278 213 C275 208 276 196 273 188 C273 184 272 181 271 179 Z" fill="#E3A878" stroke="none"/><path d="M129 180 C108 182 105 206 122 212" fill="none" stroke="#3A2E26" stroke-width="4.5"/><path d="M271 180 C292 182 295 206 278 212" fill="none" stroke="#3A2E26" stroke-width="4.5"/><path d="M121 189 C115 193 115 202 120 206" fill="none" stroke="#3A2E26" stroke-width="2.8"/><path d="M279 189 C285 193 285 202 280 206" fill="none" stroke="#3A2E26" stroke-width="2.8"/><path d="M120 178 C112 95 158 66 200 66 C242 66 288 95 280 178 C280 150 270 138 256 136 C250 150 240 150 232 140 C224 152 210 152 200 142 C190 152 176 152 168 140 C160 150 150 150 144 136 C130 138 120 150 120 178 Z" fill="#5A4632"/><path d="M120 178 C112 110 140 80 175 70 C150 90 134 130 134 175 Z" fill="#4A3829" stroke="none"/><g stroke="#3A2E26" stroke-width="2.5"><path d="M122 120 C160 100 240 100 278 120" fill="none" stroke="#A87E22" stroke-width="4"/><ellipse cx="150" cy="118" rx="13" ry="6" fill="#5E8A5C" transform="rotate(-35 150 118)"/><ellipse cx="168" cy="110" rx="13" ry="6" fill="#5E8A5C" transform="rotate(-30 168 110)"/><ellipse cx="186" cy="104" rx="13" ry="6" fill="#5E8A5C" transform="rotate(-22 186 104)"/><ellipse cx="204" cy="102" rx="13" ry="6" fill="#5E8A5C" transform="rotate(-12 204 102)"/><ellipse cx="250" cy="118" rx="13" ry="6" fill="#5E8A5C" transform="rotate(35 250 118)"/><ellipse cx="232" cy="110" rx="13" ry="6" fill="#5E8A5C" transform="rotate(30 232 110)"/><ellipse cx="214" cy="104" rx="13" ry="6" fill="#5E8A5C" transform="rotate(22 214 104)"/><circle cx="200" cy="100" r="6" fill="#D9A93C"/></g><path d="M150 162 Q170 153 188 160" fill="none" stroke="#3A2E26" stroke-width="6"/><path d="M212 160 Q230 153 250 162" fill="none" stroke="#3A2E26" stroke-width="6"/><ellipse cx="168" cy="180" rx="15" ry="12.5" fill="#fff"/><circle cx="171" cy="182" r="6.5" fill="#3A2E26" stroke="none"/><circle cx="173" cy="180" r="2" fill="#fff" stroke="none"/><ellipse cx="232" cy="180" rx="15" ry="12.5" fill="#fff"/><circle cx="229" cy="182" r="6.5" fill="#3A2E26" stroke="none"/><circle cx="231" cy="180" r="2" fill="#fff" stroke="none"/><path d="M198 184 C196 200 190 212 188 218 Q200 226 210 216" fill="none" stroke="#3A2E26" stroke-width="4.5"/><path d="M178 246 Q200 257 222 246" fill="none" stroke="#3A2E26" stroke-width="5"/></g></svg>