<svg width="400" height="440" viewBox="0 0 400 440" xmlns="http://www.w3.org/2000/svg"><g stroke="#3A2E26" stroke-width="5" stroke-linejoin="round" stroke-linecap="round"><path d="M70 440 C70 350 120 322 200 322 C280 322 330 350 330 440 Z" fill="#6E7B45"/><path d="M150 340 Q200 360 250 340" fill="none" stroke="#586438" stroke-width="5"/><path d="M120 400 Q200 420 280 400" fill="none" stroke="#586438" stroke-width="4"/><path d="M168 330 C168 360 232 360 232 330" fill="none" stroke="#C8962F" stroke-width="11"/><circle cx="168" cy="330" r="8" fill="#C8962F"/><circle cx="232" cy="330" r="8" fill="#C8962F"/><path d="M176 274 L176 326 Q200 340 224 326 L224 274 Z" fill="#E3A878"/><path d="M176 300 Q200 318 224 300 L224 326 Q200 340 176 326 Z" fill="#D99C6E" stroke="none" opacity="0.6"/><ellipse cx="200" cy="190" rx="80" ry="92" fill="#E8B68C"/><path d="M200 100 C250 104 280 150 280 190 C280 245 245 280 200 282 C235 270 258 230 258 188 C258 145 235 108 200 100 Z" fill="#D99C6E" stroke="none" opacity="0.5"/><path d="M129 179 C107 180 103 207 122 213 C125 208 124 196 127 188 C127 184 128 181 129 179 Z" fill="#E8B68C" stroke="none"/><path d="M271 179 C293 180 297 207 278 213 C275 208 276 196 273 188 C273 184 272 181 271 179 Z" fill="#E3A878" stroke="none"/><path d="M129 180 C108 182 105 206 122 212" fill="none" stroke="#3A2E26" stroke-width="4.5"/><path d="M271 180 C292 182 295 206 278 212" fill="none" stroke="#3A2E26" stroke-width="4.5"/><path d="M121 189 C115 193 115 202 120 206" fill="none" stroke="#3A2E26" stroke-width="2.8"/><path d="M279 189 C285 193 285 202 280 206" fill="none" stroke="#3A2E26" stroke-width="2.8"/><path d="M120 178 C112 95 158 58 200 58 C242 58 288 95 280 178 C280 150 270 138 256 136 C250 150 240 150 232 140 C224 152 210 152 200 142 C190 152 176 152 168 140 C160 150 150 150 144 136 C130 138 120 150 120 178 Z" fill="#C07A33"/><path d="M120 178 C112 108 140 78 176 62 C150 86 134 130 134 176 Z" fill="#9E6024" stroke="none"/><path d="M150 156 Q170 148 188 155" fill="none" stroke="#3A2E26" stroke-width="6"/><path d="M212 155 Q230 148 250 156" fill="none" stroke="#3A2E26" stroke-width="6"/><path d="M153 182 Q168 172 183 182" fill="none" stroke="#3A2E26" stroke-width="5"/><path d="M217 182 Q232 172 247 182" fill="none" stroke="#3A2E26" stroke-width="5"/><path d="M198 184 C196 200 190 212 188 218 Q200 226 210 216" fill="none" stroke="#3A2E26" stroke-width="4.5"/><path d="M172 242 Q200 272 228 242 Z" fill="#fff" stroke="#3A2E26" stroke-width="5"/><path d="M180 248 Q200 258 220 248" fill="none" stroke="#3A2E26" stroke-width="2.5"/><path d="M170 240 C184 256 196 256 200 250 C204 256 216 256 230 240 C216 268 184 268 170 240 Z" fill="#C07A33" stroke="#3A2E26" stroke-width="3.5"/></g></svg>