<svg width="400" height="440" viewBox="0 0 400 440" xmlns="http://www.w3.org/2000/svg"><g stroke="#3A2E26" stroke-width="5" stroke-linejoin="round" stroke-linecap="round"><path d="M70 440 C70 350 120 320 200 320 C280 320 330 350 330 440 Z" fill="#D9A93C"/><path d="M70 440 C72 372 120 346 200 346 C220 346 238 348 254 352 L240 440 Z" fill="#732640" stroke="none" opacity="0.85"/><path d="M254 352 C300 360 326 388 330 440" fill="none" stroke="#A87E22" stroke-width="4"/><path d="M150 360 Q200 378 250 360" fill="none" stroke="#A87E22" stroke-width="4"/><path d="M176 274 L176 326 Q200 340 224 326 L224 274 Z" fill="#E3A878"/><path d="M176 300 Q200 318 224 300 L224 326 Q200 340 176 326 Z" fill="#D99C6E" stroke="none" opacity="0.6"/><ellipse cx="200" cy="190" rx="80" ry="92" fill="#E8B68C"/><path d="M200 100 C250 104 280 150 280 190 C280 245 245 280 200 282 C235 270 258 230 258 188 C258 145 235 108 200 100 Z" fill="#D99C6E" stroke="none" opacity="0.5"/><path d="M129 179 C107 180 103 207 122 213 C125 208 124 196 127 188 C127 184 128 181 129 179 Z" fill="#E8B68C" stroke="none"/><path d="M271 179 C293 180 297 207 278 213 C275 208 276 196 273 188 C273 184 272 181 271 179 Z" fill="#E3A878" stroke="none"/><path d="M129 180 C108 182 105 206 122 212" fill="none" stroke="#3A2E26" stroke-width="4.5"/><path d="M271 180 C292 182 295 206 278 212" fill="none" stroke="#3A2E26" stroke-width="4.5"/><path d="M121 189 C115 193 115 202 120 206" fill="none" stroke="#3A2E26" stroke-width="2.8"/><path d="M279 189 C285 193 285 202 280 206" fill="none" stroke="#3A2E26" stroke-width="2.8"/><path d="M120 178 C112 95 158 66 200 66 C242 66 288 95 280 178 C280 150 270 138 256 136 C250 150 240 150 232 140 C224 152 210 152 200 142 C190 152 176 152 168 140 C160 150 150 150 144 136 C130 138 120 150 120 178 Z" fill="#5A4632"/><path d="M120 178 C112 110 140 80 175 70 C150 90 134 130 134 175 Z" fill="#4A3829" stroke="none"/><path d="M150 162 Q170 153 188 160" fill="none" stroke="#3A2E26" stroke-width="6"/><path d="M212 160 Q230 153 250 162" fill="none" stroke="#3A2E26" stroke-width="6"/><ellipse cx="168" cy="180" rx="15" ry="12.5" fill="#fff"/><circle cx="171" cy="182" r="6.5" fill="#3A2E26" stroke="none"/><circle cx="173" cy="180" r="2" fill="#fff" stroke="none"/><ellipse cx="232" cy="180" rx="15" ry="12.5" fill="#fff"/><circle cx="229" cy="182" r="6.5" fill="#3A2E26" stroke="none"/><circle cx="231" cy="180" r="2" fill="#fff" stroke="none"/><path d="M198 184 C196 200 190 212 188 218 Q200 226 210 216" fill="none" stroke="#3A2E26" stroke-width="4.5"/><path d="M178 246 Q200 257 222 246" fill="none" stroke="#3A2E26" stroke-width="5"/><path d="M138 210 C140 270 168 300 200 300 C232 300 260 270 262 210 C256 250 230 264 200 264 C170 264 144 250 138 210 Z" fill="#5A4632" stroke="#3A2E26" stroke-width="4"/><path d="M176 248 C186 258 214 258 224 248 C214 262 186 262 176 248 Z" fill="#5A4632" stroke="none"/></g></svg>